<mxfile host="app.diagrams.net" modified="2024-01-28T05:31:08.609Z" agent="Mozilla/5.0 (Windows NT 10.0; Win64; x64) AppleWebKit/537.36 (KHTML, like Gecko) Chrome/121.0.0.0 Safari/537.36 Edg/121.0.0.0" version="23.0.2" etag="GR-KhycWZvifVupqpLFA" type="github">
  <diagram name="Page-1" id="TE0r5pByK-vjrwj4Grqs">
    <mxGraphModel>
      <root>
        <mxCell id="0" />
        <mxCell id="1" parent="0" />
      </root>
    </mxGraphModel>
  </diagram>
</mxfile>
